# xmcd
#
# Track frame offsets:
#	150
#	13565
#	25012
#	38565
#	56245
#	69955
#	79012
#	96782
#	111902
#	129217
#	142752
#	160865
#
# Disc length: 2306 seconds
#
# Revision: 0
# Processed by: cddbd v1.5.1PL0 Copyright (c) Steve Scherf et al.
# Submitted via: dBpowerAMP V4.0
#
DISCID=8909000c
DTITLE=Erin Harpe - Blues Roots
DYEAR=2002
DGENRE=Blues
TTITLE0=Chauffeur Blues (Memphis Minnie)
TTITLE1=Alligator Blues (Bessie Smith)
TTITLE2=One Thing I Like About that Man of Mine (William Moore)
TTITLE3=Bye Bye Blues (Tommy Johnson)
TTITLE4=Big Bad Bill (Yellen/Ager)
TTITLE5=In My Girlish Days (Memphis Minnie)
TTITLE6=M&0 Blues (Lucille Bogan)
TTITLE7=You Gonna Quit Me Blues (Blind Blake)
TTITLE8=Big Road Blues (Tommy Johnson)
TTITLE9=Pick Poor Robin Clean (Geechie Wiley)
TTITLE10=Future Blues (Willie Brown)
TTITLE11=Stop and Listen Blues (Eleanor Ellis)
EXTD=
EXTT0=
EXTT1=
EXTT2=
EXTT3=
EXTT4=
EXTT5=
EXTT6=
EXTT7=
EXTT8=
EXTT9=
EXTT10=
EXTT11=
PLAYORDER=
